<svg width="43" height="40" viewBox="0 0 43 40" fill="none" xmlns="http://www.w3.org/2000/svg">
<path id="Vector" d="M0 36.4245C0 38.4001 1.59995 40 3.57546 40H15.1956C17.1712 40 18.7711 38.4001 18.7711 36.4245V22.1228C18.7711 20.1473 17.1712 18.5474 15.1956 18.5474H9.45734C8.46526 18.5474 7.66976 17.7429 7.66976 16.7598C7.66976 16.4381 7.75027 16.2145 7.75027 16.2145C9.05541 11.8884 12.3525 8.42047 16.5817 6.88281L16.5996 6.86485C17.8779 6.31957 18.7718 5.0503 18.7718 3.57546C18.7718 1.59995 17.1719 0 15.1963 0C14.7136 0 14.2578 0.0984655 13.8377 0.268152L13.6766 0.330701C5.67652 3.45008 0.000887309 11.2261 0.000887309 20.3349V36.424L0 36.4245ZM23.2396 36.4245C23.2396 38.4001 24.8395 40 26.8151 40H38.4352C40.4108 40 42.0107 38.4001 42.0107 36.4245V22.1228C42.0107 20.1473 40.4108 18.5474 38.4352 18.5474H32.6969C31.7049 18.5474 30.9094 17.7429 30.9094 16.7598C30.9094 16.4291 30.9899 16.2145 30.9899 16.2145C32.295 11.8884 35.5921 8.42047 39.8213 6.88281L39.8392 6.86485C41.1175 6.31957 42.0114 5.0503 42.0114 3.57546C42.0114 1.59995 40.4115 0 38.4359 0C37.9532 0 37.4974 0.0984655 37.0773 0.268152L36.9162 0.330701C28.9161 3.45008 23.2405 11.2261 23.2405 20.3349V36.424L23.2396 36.4245Z" fill="white"/>
</svg>
